<svg width="24" height="25" viewBox="0 0 24 25" fill="none" xmlns="http://www.w3.org/2000/svg">
<path fill-rule="evenodd" clip-rule="evenodd" d="M3.20029 5.07283C3.2003 3.19507 4.72253 1.67285 6.60029 1.67285H15.67C16.2905 1.67285 16.8716 1.93393 17.2872 2.3712C17.631 2.73285 18.1634 3.27671 18.6674 3.72761C19.1181 4.13088 19.8011 4.82999 20.1905 5.23394C20.5861 5.64435 20.8006 6.18936 20.8006 6.75071L20.8005 7.46464C20.8006 7.46737 20.8006 7.47011 20.8006 7.47285C20.8006 7.47561 20.8006 7.47836 20.8005 7.48112L20.8002 19.4729C20.8002 21.3507 19.278 22.8728 17.4002 22.8728L6.60018 22.8728C4.72241 22.8728 3.20018 21.3505 3.2002 19.4728L3.20029 5.07283ZM18.6064 6.47285C18.2118 6.0661 17.6763 5.52453 17.3338 5.21809C16.8491 4.78442 16.3557 4.28813 16.0006 3.9194V6.27285C16.0006 6.38331 16.0901 6.47285 16.2006 6.47285H18.6064ZM14.0006 3.67285V6.27285C14.0006 7.48788 14.9855 8.47285 16.2006 8.47285H18.8005L18.8002 19.4729C18.8002 20.2461 18.1734 20.8728 17.4002 20.8728L6.60019 20.8728C5.82699 20.8728 5.20019 20.246 5.2002 19.4728L5.20029 5.07284C5.20029 4.29965 5.82709 3.67285 6.60029 3.67285H14.0006ZM7.40057 7.47285C7.40057 6.92057 7.84829 6.47285 8.40057 6.47285H10.8006C11.3529 6.47285 11.8006 6.92057 11.8006 7.47285C11.8006 8.02514 11.3529 8.47285 10.8006 8.47285H8.40057C7.84829 8.47285 7.40057 8.02514 7.40057 7.47285ZM7.40057 11.0729C7.40057 10.5206 7.84829 10.0729 8.40057 10.0729H15.6006C16.1529 10.0729 16.6006 10.5206 16.6006 11.0729C16.6006 11.6251 16.1529 12.0729 15.6006 12.0729H8.40057C7.84829 12.0729 7.40057 11.6251 7.40057 11.0729ZM7.40057 14.6729C7.40057 14.1206 7.84829 13.6729 8.40057 13.6729H15.6006C16.1529 13.6729 16.6006 14.1206 16.6006 14.6729C16.6006 15.2251 16.1529 15.6729 15.6006 15.6729H8.40057C7.84829 15.6729 7.40057 15.2251 7.40057 14.6729Z" fill="currentColor"/>
</svg>
