<svg width="824" height="824" viewBox="0 0 824 824" fill="none" xmlns="http://www.w3.org/2000/svg">
<rect x="30" y="30" width="764" height="764" rx="226" fill="#0A0A0A" stroke="#6193FF" stroke-width="60" stroke-linecap="round" stroke-linejoin="round"/>
<path d="M463.258 298.778C466.311 284.276 457.03 270.045 442.528 266.992C428.026 263.939 413.795 273.22 410.742 287.722L360.742 525.222C357.689 539.724 366.97 553.955 381.472 557.008C395.974 560.061 410.205 550.78 413.258 536.278L463.258 298.778ZM555.974 324.276C545.495 313.797 528.505 313.797 518.026 324.276C507.547 334.755 507.547 351.745 518.026 362.224L574.052 418.25L518.026 474.276C507.547 484.755 507.547 501.745 518.026 512.224C528.505 522.703 545.495 522.703 555.974 512.224L630.974 437.224C641.453 426.745 641.453 409.755 630.974 399.276L555.974 324.276ZM305.974 362.224C316.453 351.745 316.453 334.755 305.974 324.276C295.495 313.797 278.505 313.797 268.026 324.276L193.026 399.276C182.547 409.755 182.547 426.745 193.026 437.224L268.026 512.224C278.505 522.703 295.495 522.703 305.974 512.224C316.453 501.745 316.453 484.755 305.974 474.276L249.948 418.25L305.974 362.224Z" fill="#6193FF" stroke="#6193FF" stroke-width="12" stroke-linecap="round" stroke-linejoin="round"/>
</svg>
